# MagicaVoxel @ Ephtracy

# material
mtllib flower.mtl
usemtl palette

# normals
vn -1 0 0
vn 1 0 0
vn 0 0 1
vn 0 0 -1
vn 0 -1 0
vn 0 1 0

# texcoords
vt 0.638672 0.5
vt 0.689453 0.5
vt 0.693359 0.5
vt 0.931641 0.5

# verts
v -3.5 4 1.5
v -3.5 4 0.5
v -3.5 6 1.5
v -3.5 6 0.5
v -3.5 12 -0.5
v -3.5 12 -1.5
v -3.5 13 -0.5
v -3.5 13 -1.5
v -2.5 3 1.5
v -2.5 3 0.5
v -2.5 4 1.5
v -2.5 4 0.5
v -2.5 12 0.5
v -2.5 12 -0.5
v -2.5 12 -1.5
v -2.5 12 -2.5
v -2.5 13 0.5
v -2.5 13 -0.5
v -2.5 13 -1.5
v -2.5 13 -2.5
v -0.5 0 0.5
v -0.5 0 -0.5
v -0.5 2 1.5
v -0.5 2 0.5
v -0.5 3 1.5
v -0.5 3 0.5
v -0.5 3 -0.5
v -0.5 12 2.5
v -0.5 12 0.5
v -0.5 12 -2.5
v -0.5 12 -4.5
v -0.5 13 2.5
v -0.5 13 0.5
v -0.5 13 -2.5
v -0.5 13 -4.5
v -0.5 14 0.5
v -0.5 14 -0.5
v -0.5 15 -1.5
v -0.5 15 -2.5
v -0.5 16 -0.5
v -0.5 16 -1.5
v 0.5 4 1.5
v 0.5 4 0.5
v 0.5 5 3.5
v 0.5 5 1.5
v 0.5 6 4.5
v 0.5 6 3.5
v 0.5 6 1.5
v 0.5 6 0.5
v 0.5 7 2.5
v 0.5 7 1.5
v 0.5 8 4.5
v 0.5 8 2.5
v 0.5 11 -0.5
v 0.5 11 -1.5
v 0.5 12 3.5
v 0.5 12 2.5
v 0.5 12 -0.5
v 0.5 12 -1.5
v 0.5 12 -4.5
v 0.5 12 -5.5
v 0.5 13 3.5
v 0.5 13 2.5
v 0.5 13 -4.5
v 0.5 13 -5.5
v 0.5 14 0.5
v 0.5 14 -0.5
v 0.5 15 0.5
v 0.5 15 -0.5
v 0.5 15 -1.5
v 0.5 15 -2.5
v 0.5 16 -0.5
v 0.5 16 -1.5
v 0.5 16 -2.5
v 0.5 17 -0.5
v 0.5 17 -1.5
v 1.5 5 0.5
v 1.5 5 -0.5
v 1.5 6 0.5
v 1.5 8 -0.5
v 1.5 8 -1.5
v 1.5 9 0.5
v 1.5 9 -0.5
v 1.5 11 -0.5
v 1.5 11 -1.5
v 1.5 13 -0.5
v 1.5 13 -1.5
v 1.5 14 -0.5
v 1.5 14 -1.5
v 2.5 9 0.5
v 2.5 9 -0.5
v 2.5 10 0.5
v 2.5 10 -0.5
v 3.5 10 0.5
v 3.5 10 -0.5
v 3.5 11 0.5
v 3.5 11 -0.5
v -1.5 5 1.5
v -1.5 5 0.5
v -1.5 6 1.5
v -1.5 6 0.5
v -0.5 4 1.5
v -0.5 4 0.5
v -0.5 5 1.5
v -0.5 5 0.5
v 0.5 0 0.5
v 0.5 0 -0.5
v 0.5 2 1.5
v 0.5 2 0.5
v 0.5 3 1.5
v 0.5 3 0.5
v 0.5 3 -0.5
v 0.5 13 -0.5
v 0.5 13 -1.5
v 0.5 14 -0.5
v 0.5 14 -1.5
v 1.5 3 1.5
v 1.5 3 0.5
v 1.5 5 3.5
v 1.5 5 1.5
v 1.5 5 0.5
v 1.5 6 4.5
v 1.5 6 3.5
v 1.5 6 1.5
v 1.5 7 2.5
v 1.5 7 1.5
v 1.5 8 4.5
v 1.5 8 2.5
v 1.5 12 3.5
v 1.5 12 2.5
v 1.5 12 -4.5
v 1.5 12 -5.5
v 1.5 13 3.5
v 1.5 13 2.5
v 1.5 13 -4.5
v 1.5 13 -5.5
v 1.5 14 0.5
v 1.5 14 -0.5
v 1.5 14 -1.5
v 1.5 14 -2.5
v 1.5 15 0.5
v 1.5 15 -0.5
v 1.5 15 -1.5
v 1.5 16 -1.5
v 1.5 16 -2.5
v 1.5 17 -0.5
v 1.5 17 -1.5
v 2.5 5 1.5
v 2.5 5 -0.5
v 2.5 6 1.5
v 2.5 6 0.5
v 2.5 8 0.5
v 2.5 8 -0.5
v 2.5 8 -1.5
v 2.5 10 -0.5
v 2.5 12 2.5
v 2.5 12 0.5
v 2.5 12 -0.5
v 2.5 12 -1.5
v 2.5 12 -2.5
v 2.5 12 -4.5
v 2.5 13 2.5
v 2.5 13 0.5
v 2.5 13 -2.5
v 2.5 13 -4.5
v 2.5 14 0.5
v 2.5 14 -0.5
v 2.5 14 -1.5
v 2.5 14 -2.5
v 2.5 15 -0.5
v 2.5 15 -1.5
v 4.5 8 0.5
v 4.5 8 -0.5
v 4.5 9 0.5
v 4.5 9 -0.5
v 4.5 12 0.5
v 4.5 12 -0.5
v 4.5 12 -1.5
v 4.5 12 -2.5
v 4.5 13 0.5
v 4.5 13 -0.5
v 4.5 13 -1.5
v 4.5 13 -2.5
v 5.5 9 0.5
v 5.5 9 -0.5
v 5.5 11 0.5
v 5.5 11 -0.5
v 5.5 12 -0.5
v 5.5 12 -1.5
v 5.5 13 -0.5
v 5.5 13 -1.5
v 0.5 6 4.5
v 0.5 8 4.5
v 1.5 6 4.5
v 1.5 8 4.5
v 0.5 5 3.5
v 0.5 6 3.5
v 0.5 12 3.5
v 0.5 13 3.5
v 1.5 5 3.5
v 1.5 6 3.5
v 1.5 12 3.5
v 1.5 13 3.5
v -0.5 12 2.5
v -0.5 13 2.5
v 0.5 12 2.5
v 0.5 13 2.5
v 1.5 12 2.5
v 1.5 13 2.5
v 2.5 12 2.5
v 2.5 13 2.5
v -3.5 4 1.5
v -3.5 6 1.5
v -2.5 3 1.5
v -2.5 4 1.5
v -1.5 5 1.5
v -1.5 6 1.5
v -0.5 2 1.5
v -0.5 3 1.5
v -0.5 4 1.5
v -0.5 5 1.5
v 0.5 2 1.5
v 0.5 3 1.5
v 0.5 4 1.5
v 0.5 5 1.5
v 1.5 3 1.5
v 1.5 5 1.5
v 1.5 6 1.5
v 2.5 5 1.5
v 2.5 6 1.5
v -2.5 12 0.5
v -2.5 13 0.5
v -0.5 0 0.5
v -0.5 2 0.5
v -0.5 12 0.5
v -0.5 13 0.5
v -0.5 14 0.5
v 0.5 0 0.5
v 0.5 2 0.5
v 0.5 14 0.5
v 0.5 15 0.5
v 1.5 6 0.5
v 1.5 9 0.5
v 1.5 14 0.5
v 1.5 15 0.5
v 2.5 6 0.5
v 2.5 8 0.5
v 2.5 9 0.5
v 2.5 10 0.5
v 2.5 12 0.5
v 2.5 13 0.5
v 2.5 14 0.5
v 3.5 10 0.5
v 3.5 11 0.5
v 4.5 8 0.5
v 4.5 9 0.5
v 4.5 12 0.5
v 4.5 13 0.5
v 5.5 9 0.5
v 5.5 11 0.5
v -3.5 12 -0.5
v -3.5 13 -0.5
v -2.5 12 -0.5
v -2.5 13 -0.5
v -0.5 14 -0.5
v -0.5 16 -0.5
v 0.5 11 -0.5
v 0.5 12 -0.5
v 0.5 14 -0.5
v 0.5 15 -0.5
v 0.5 16 -0.5
v 0.5 17 -0.5
v 1.5 9 -0.5
v 1.5 11 -0.5
v 1.5 14 -0.5
v 1.5 15 -0.5
v 1.5 17 -0.5
v 2.5 9 -0.5
v 2.5 10 -0.5
v 2.5 12 -0.5
v 2.5 14 -0.5
v 2.5 15 -0.5
v 4.5 12 -0.5
v 4.5 13 -0.5
v 5.5 12 -0.5
v 5.5 13 -0.5
v 0.5 13 -1.5
v 0.5 14 -1.5
v 1.5 13 -1.5
v 1.5 14 -1.5
v 0.5 7 2.5
v 0.5 8 2.5
v 1.5 7 2.5
v 1.5 8 2.5
v 0.5 6 1.5
v 0.5 7 1.5
v 1.5 6 1.5
v 1.5 7 1.5
v -3.5 4 0.5
v -3.5 6 0.5
v -2.5 3 0.5
v -2.5 4 0.5
v -1.5 5 0.5
v -1.5 6 0.5
v -0.5 3 0.5
v -0.5 4 0.5
v -0.5 5 0.5
v 0.5 3 0.5
v 0.5 4 0.5
v 0.5 6 0.5
v 1.5 3 0.5
v 1.5 5 0.5
v 1.5 6 0.5
v -0.5 0 -0.5
v -0.5 3 -0.5
v 0.5 0 -0.5
v 0.5 3 -0.5
v 0.5 13 -0.5
v 0.5 14 -0.5
v 1.5 5 -0.5
v 1.5 8 -0.5
v 1.5 13 -0.5
v 1.5 14 -0.5
v 2.5 5 -0.5
v 2.5 8 -0.5
v 2.5 10 -0.5
v 3.5 10 -0.5
v 3.5 11 -0.5
v 4.5 8 -0.5
v 4.5 9 -0.5
v 5.5 9 -0.5
v 5.5 11 -0.5
v -3.5 12 -1.5
v -3.5 13 -1.5
v -2.5 12 -1.5
v -2.5 13 -1.5
v -0.5 15 -1.5
v -0.5 16 -1.5
v 0.5 11 -1.5
v 0.5 12 -1.5
v 0.5 15 -1.5
v 0.5 16 -1.5
v 0.5 17 -1.5
v 1.5 8 -1.5
v 1.5 11 -1.5
v 1.5 14 -1.5
v 1.5 15 -1.5
v 1.5 16 -1.5
v 1.5 17 -1.5
v 2.5 8 -1.5
v 2.5 12 -1.5
v 2.5 14 -1.5
v 2.5 15 -1.5
v 4.5 12 -1.5
v 4.5 13 -1.5
v 5.5 12 -1.5
v 5.5 13 -1.5
v -2.5 12 -2.5
v -2.5 13 -2.5
v -0.5 12 -2.5
v -0.5 13 -2.5
v -0.5 15 -2.5
v 0.5 15 -2.5
v 0.5 16 -2.5
v 1.5 14 -2.5
v 1.5 16 -2.5
v 2.5 12 -2.5
v 2.5 13 -2.5
v 2.5 14 -2.5
v 4.5 12 -2.5
v 4.5 13 -2.5
v -0.5 12 -4.5
v -0.5 13 -4.5
v 0.5 12 -4.5
v 0.5 13 -4.5
v 1.5 12 -4.5
v 1.5 13 -4.5
v 2.5 12 -4.5
v 2.5 13 -4.5
v 0.5 12 -5.5
v 0.5 13 -5.5
v 1.5 12 -5.5
v 1.5 13 -5.5
v -0.5 0 0.5
v 0.5 0 0.5
v -0.5 0 -0.5
v 0.5 0 -0.5
v -0.5 2 1.5
v 0.5 2 1.5
v -0.5 2 0.5
v 0.5 2 0.5
v -2.5 3 1.5
v -0.5 3 1.5
v 0.5 3 1.5
v 1.5 3 1.5
v -2.5 3 0.5
v -0.5 3 0.5
v 0.5 3 0.5
v 1.5 3 0.5
v -3.5 4 1.5
v -2.5 4 1.5
v -3.5 4 0.5
v -2.5 4 0.5
v 0.5 5 3.5
v 1.5 5 3.5
v 0.5 5 1.5
v 1.5 5 1.5
v 2.5 5 1.5
v 1.5 5 0.5
v 1.5 5 -0.5
v 2.5 5 -0.5
v 0.5 6 4.5
v 1.5 6 4.5
v 0.5 6 3.5
v 1.5 6 3.5
v 2.5 8 0.5
v 4.5 8 0.5
v 1.5 8 -0.5
v 2.5 8 -0.5
v 4.5 8 -0.5
v 1.5 8 -1.5
v 2.5 8 -1.5
v 4.5 9 0.5
v 5.5 9 0.5
v 4.5 9 -0.5
v 5.5 9 -0.5
v 0.5 11 -0.5
v 1.5 11 -0.5
v 0.5 11 -1.5
v 1.5 11 -1.5
v 0.5 12 3.5
v 1.5 12 3.5
v -0.5 12 2.5
v 0.5 12 2.5
v 1.5 12 2.5
v 2.5 12 2.5
v -2.5 12 0.5
v -0.5 12 0.5
v 2.5 12 0.5
v 4.5 12 0.5
v -3.5 12 -0.5
v -2.5 12 -0.5
v 0.5 12 -0.5
v 2.5 12 -0.5
v 4.5 12 -0.5
v 5.5 12 -0.5
v -3.5 12 -1.5
v -2.5 12 -1.5
v 0.5 12 -1.5
v 2.5 12 -1.5
v 4.5 12 -1.5
v 5.5 12 -1.5
v -2.5 12 -2.5
v -0.5 12 -2.5
v 2.5 12 -2.5
v 4.5 12 -2.5
v -0.5 12 -4.5
v 0.5 12 -4.5
v 1.5 12 -4.5
v 2.5 12 -4.5
v 0.5 12 -5.5
v 1.5 12 -5.5
v 0.5 14 -0.5
v 1.5 14 -0.5
v 0.5 14 -1.5
v 1.5 14 -1.5
v -0.5 3 0.5
v 0.5 3 0.5
v -0.5 3 -0.5
v 0.5 3 -0.5
v -0.5 4 1.5
v 0.5 4 1.5
v -0.5 4 0.5
v 0.5 4 0.5
v -1.5 5 1.5
v -0.5 5 1.5
v -1.5 5 0.5
v -0.5 5 0.5
v -3.5 6 1.5
v -1.5 6 1.5
v 0.5 6 1.5
v 1.5 6 1.5
v 2.5 6 1.5
v -3.5 6 0.5
v -1.5 6 0.5
v 0.5 6 0.5
v 1.5 6 0.5
v 2.5 6 0.5
v 0.5 7 2.5
v 1.5 7 2.5
v 0.5 7 1.5
v 1.5 7 1.5
v 0.5 8 4.5
v 1.5 8 4.5
v 0.5 8 2.5
v 1.5 8 2.5
v 1.5 9 0.5
v 2.5 9 0.5
v 1.5 9 -0.5
v 2.5 9 -0.5
v 2.5 10 0.5
v 3.5 10 0.5
v 2.5 10 -0.5
v 3.5 10 -0.5
v 3.5 11 0.5
v 5.5 11 0.5
v 3.5 11 -0.5
v 5.5 11 -0.5
v 0.5 13 3.5
v 1.5 13 3.5
v -0.5 13 2.5
v 0.5 13 2.5
v 1.5 13 2.5
v 2.5 13 2.5
v -2.5 13 0.5
v -0.5 13 0.5
v 2.5 13 0.5
v 4.5 13 0.5
v -3.5 13 -0.5
v -2.5 13 -0.5
v 0.5 13 -0.5
v 1.5 13 -0.5
v 4.5 13 -0.5
v 5.5 13 -0.5
v -3.5 13 -1.5
v -2.5 13 -1.5
v 0.5 13 -1.5
v 1.5 13 -1.5
v 4.5 13 -1.5
v 5.5 13 -1.5
v -2.5 13 -2.5
v -0.5 13 -2.5
v 2.5 13 -2.5
v 4.5 13 -2.5
v -0.5 13 -4.5
v 0.5 13 -4.5
v 1.5 13 -4.5
v 2.5 13 -4.5
v 0.5 13 -5.5
v 1.5 13 -5.5
v -0.5 14 0.5
v 0.5 14 0.5
v 1.5 14 0.5
v 2.5 14 0.5
v -0.5 14 -0.5
v 0.5 14 -0.5
v 1.5 14 -0.5
v 2.5 14 -0.5
v 1.5 14 -1.5
v 2.5 14 -1.5
v 1.5 14 -2.5
v 2.5 14 -2.5
v 0.5 15 0.5
v 1.5 15 0.5
v 0.5 15 -0.5
v 1.5 15 -0.5
v 2.5 15 -0.5
v -0.5 15 -1.5
v 0.5 15 -1.5
v 1.5 15 -1.5
v 2.5 15 -1.5
v -0.5 15 -2.5
v 0.5 15 -2.5
v -0.5 16 -0.5
v 0.5 16 -0.5
v -0.5 16 -1.5
v 0.5 16 -1.5
v 1.5 16 -1.5
v 0.5 16 -2.5
v 1.5 16 -2.5
v 0.5 17 -0.5
v 1.5 17 -0.5
v 0.5 17 -1.5
v 1.5 17 -1.5

# faces
f 3/1/1 2/1/1 1/1/1
f 4/1/1 2/1/1 3/1/1
f 7/3/1 6/3/1 5/3/1
f 8/3/1 6/3/1 7/3/1
f 11/1/1 10/1/1 9/1/1
f 12/1/1 10/1/1 11/1/1
f 17/3/1 14/3/1 13/3/1
f 18/3/1 14/3/1 17/3/1
f 19/3/1 16/3/1 15/3/1
f 20/3/1 16/3/1 19/3/1
f 24/2/1 22/2/1 21/2/1
f 25/2/1 24/2/1 23/2/1
f 26/2/1 22/2/1 24/2/1
f 26/2/1 24/2/1 25/2/1
f 27/2/1 22/2/1 26/2/1
f 32/3/1 29/3/1 28/3/1
f 33/3/1 29/3/1 32/3/1
f 34/3/1 31/3/1 30/3/1
f 35/3/1 31/3/1 34/3/1
f 36/4/1 34/4/1 33/4/1
f 37/4/1 34/4/1 36/4/1
f 38/4/1 34/4/1 37/4/1
f 39/4/1 34/4/1 38/4/1
f 40/4/1 38/4/1 37/4/1
f 41/4/1 38/4/1 40/4/1
f 45/2/1 43/2/1 42/2/1
f 47/1/1 45/1/1 44/1/1
f 48/2/1 43/2/1 45/2/1
f 48/1/1 45/1/1 47/1/1
f 49/2/1 43/2/1 48/2/1
f 50/1/1 47/1/1 46/1/1
f 50/1/1 48/1/1 47/1/1
f 51/1/1 48/1/1 50/1/1
f 52/1/1 50/1/1 46/1/1
f 53/1/1 50/1/1 52/1/1
f 58/2/1 55/2/1 54/2/1
f 59/2/1 55/2/1 58/2/1
f 62/3/1 57/3/1 56/3/1
f 63/3/1 57/3/1 62/3/1
f 64/3/1 61/3/1 60/3/1
f 65/3/1 61/3/1 64/3/1
f 68/4/1 67/4/1 66/4/1
f 69/4/1 67/4/1 68/4/1
f 73/4/1 71/4/1 70/4/1
f 74/4/1 71/4/1 73/4/1
f 75/4/1 73/4/1 72/4/1
f 76/4/1 73/4/1 75/4/1
f 79/2/1 78/2/1 77/2/1
f 80/2/1 78/2/1 79/2/1
f 82/2/1 80/2/1 79/2/1
f 82/2/1 81/2/1 80/2/1
f 83/2/1 81/2/1 82/2/1
f 84/2/1 81/2/1 83/2/1
f 85/2/1 81/2/1 84/2/1
f 88/4/1 87/4/1 86/4/1
f 89/4/1 87/4/1 88/4/1
f 92/1/1 91/1/1 90/1/1
f 93/1/1 91/1/1 92/1/1
f 96/1/1 95/1/1 94/1/1
f 97/1/1 95/1/1 96/1/1
f 98/1/2 99/1/2 100/1/2
f 100/1/2 99/1/2 101/1/2
f 102/1/2 103/1/2 104/1/2
f 104/1/2 103/1/2 105/1/2
f 106/2/2 107/2/2 109/2/2
f 108/2/2 109/2/2 110/2/2
f 109/2/2 107/2/2 111/2/2
f 110/2/2 109/2/2 111/2/2
f 111/2/2 107/2/2 112/2/2
f 113/4/2 114/4/2 115/4/2
f 115/4/2 114/4/2 116/4/2
f 117/2/2 118/2/2 120/2/2
f 120/2/2 118/2/2 121/2/2
f 119/1/2 120/1/2 123/1/2
f 123/1/2 120/1/2 124/1/2
f 122/1/2 123/1/2 125/1/2
f 123/1/2 124/1/2 125/1/2
f 125/1/2 124/1/2 126/1/2
f 122/1/2 125/1/2 127/1/2
f 127/1/2 125/1/2 128/1/2
f 129/3/2 130/3/2 133/3/2
f 133/3/2 130/3/2 134/3/2
f 131/3/2 132/3/2 135/3/2
f 135/3/2 132/3/2 136/3/2
f 137/4/2 138/4/2 141/4/2
f 141/4/2 138/4/2 142/4/2
f 139/4/2 140/4/2 143/4/2
f 142/4/2 143/4/2 144/4/2
f 143/4/2 140/4/2 144/4/2
f 144/4/2 140/4/2 145/4/2
f 142/4/2 144/4/2 146/4/2
f 146/4/2 144/4/2 147/4/2
f 148/2/2 149/2/2 150/2/2
f 150/2/2 149/2/2 151/2/2
f 151/2/2 149/2/2 152/2/2
f 152/2/2 149/2/2 153/2/2
f 153/2/2 154/2/2 155/2/2
f 155/2/2 154/2/2 158/2/2
f 158/2/2 154/2/2 159/2/2
f 156/3/2 157/3/2 162/3/2
f 162/3/2 157/3/2 163/3/2
f 160/3/2 161/3/2 164/3/2
f 164/3/2 161/3/2 165/3/2
f 163/4/2 164/4/2 166/4/2
f 166/4/2 164/4/2 167/4/2
f 167/4/2 164/4/2 168/4/2
f 168/4/2 164/4/2 169/4/2
f 167/4/2 168/4/2 170/4/2
f 170/4/2 168/4/2 171/4/2
f 172/1/2 173/1/2 174/1/2
f 174/1/2 173/1/2 175/1/2
f 176/3/2 177/3/2 180/3/2
f 180/3/2 177/3/2 181/3/2
f 178/3/2 179/3/2 182/3/2
f 182/3/2 179/3/2 183/3/2
f 184/1/2 185/1/2 186/1/2
f 186/1/2 185/1/2 187/1/2
f 188/3/2 189/3/2 190/3/2
f 190/3/2 189/3/2 191/3/2
f 194/1/3 193/1/3 192/1/3
f 195/1/3 193/1/3 194/1/3
f 200/1/3 197/1/3 196/1/3
f 201/1/3 197/1/3 200/1/3
f 202/3/3 199/3/3 198/3/3
f 203/3/3 199/3/3 202/3/3
f 206/3/3 205/3/3 204/3/3
f 207/3/3 205/3/3 206/3/3
f 210/3/3 209/3/3 208/3/3
f 211/3/3 209/3/3 210/3/3
f 215/1/3 213/1/3 212/1/3
f 216/1/3 213/1/3 215/1/3
f 216/1/3 215/1/3 214/1/3
f 217/1/3 213/1/3 216/1/3
f 219/1/3 216/1/3 214/1/3
f 220/1/3 216/1/3 219/1/3
f 221/1/3 216/1/3 220/1/3
f 222/2/3 219/2/3 218/2/3
f 222/2/3 220/2/3 219/2/3
f 223/2/3 220/2/3 222/2/3
f 224/2/3 220/2/3 223/2/3
f 226/2/3 225/2/3 224/2/3
f 226/2/3 224/2/3 223/2/3
f 227/2/3 225/2/3 226/2/3
f 229/2/3 228/2/3 227/2/3
f 230/2/3 228/2/3 229/2/3
f 235/3/3 232/3/3 231/3/3
f 236/3/3 232/3/3 235/3/3
f 238/2/3 234/2/3 233/2/3
f 239/2/3 234/2/3 238/2/3
f 240/4/3 237/4/3 236/4/3
f 244/4/3 241/4/3 240/4/3
f 244/4/3 240/4/3 236/4/3
f 245/4/3 241/4/3 244/4/3
f 246/2/3 243/2/3 242/2/3
f 247/2/3 243/2/3 246/2/3
f 248/2/3 243/2/3 247/2/3
f 251/4/3 244/4/3 236/4/3
f 252/4/3 244/4/3 251/4/3
f 253/1/3 249/1/3 248/1/3
f 253/1/3 248/1/3 247/1/3
f 255/1/3 253/1/3 247/1/3
f 255/1/3 254/1/3 253/1/3
f 256/1/3 254/1/3 255/1/3
f 257/3/3 251/3/3 250/3/3
f 258/3/3 251/3/3 257/3/3
f 259/1/3 254/1/3 256/1/3
f 260/1/3 254/1/3 259/1/3
f 263/3/3 262/3/3 261/3/3
f 264/3/3 262/3/3 263/3/3
f 269/4/3 266/4/3 265/4/3
f 270/4/3 266/4/3 269/4/3
f 271/4/3 266/4/3 270/4/3
f 274/2/3 268/2/3 267/2/3
f 276/4/3 271/4/3 270/4/3
f 276/4/3 272/4/3 271/4/3
f 277/4/3 272/4/3 276/4/3
f 278/2/3 274/2/3 273/2/3
f 279/2/3 274/2/3 278/2/3
f 280/2/3 268/2/3 274/2/3
f 280/2/3 274/2/3 279/2/3
f 281/4/3 276/4/3 275/4/3
f 282/4/3 276/4/3 281/4/3
f 285/3/3 284/3/3 283/3/3
f 286/3/3 284/3/3 285/3/3
f 289/4/3 288/4/3 287/4/3
f 290/4/3 288/4/3 289/4/3
f 291/1/4 292/1/4 293/1/4
f 293/1/4 292/1/4 294/1/4
f 295/1/4 296/1/4 297/1/4
f 297/1/4 296/1/4 298/1/4
f 299/1/4 300/1/4 302/1/4
f 302/1/4 300/1/4 303/1/4
f 301/1/4 302/1/4 303/1/4
f 303/1/4 300/1/4 304/1/4
f 301/1/4 303/1/4 305/1/4
f 305/1/4 303/1/4 306/1/4
f 306/1/4 303/1/4 307/1/4
f 305/2/4 306/2/4 308/2/4
f 308/2/4 306/2/4 309/2/4
f 308/2/4 309/2/4 311/2/4
f 309/2/4 310/2/4 311/2/4
f 311/2/4 310/2/4 312/2/4
f 312/2/4 310/2/4 313/2/4
f 314/2/4 315/2/4 316/2/4
f 316/2/4 315/2/4 317/2/4
f 318/4/4 319/4/4 322/4/4
f 322/4/4 319/4/4 323/4/4
f 320/2/4 321/2/4 324/2/4
f 324/2/4 321/2/4 325/2/4
f 325/1/4 326/1/4 327/1/4
f 325/1/4 327/1/4 329/1/4
f 327/1/4 328/1/4 329/1/4
f 329/1/4 328/1/4 330/1/4
f 330/1/4 328/1/4 331/1/4
f 331/1/4 328/1/4 332/1/4
f 333/3/4 334/3/4 335/3/4
f 335/3/4 334/3/4 336/3/4
f 337/4/4 338/4/4 341/4/4
f 341/4/4 338/4/4 342/4/4
f 339/2/4 340/2/4 345/2/4
f 342/4/4 343/4/4 348/4/4
f 348/4/4 343/4/4 349/4/4
f 344/2/4 345/2/4 350/2/4
f 345/2/4 340/2/4 351/2/4
f 350/2/4 345/2/4 351/2/4
f 346/4/4 347/4/4 352/4/4
f 352/4/4 347/4/4 353/4/4
f 354/3/4 355/3/4 356/3/4
f 356/3/4 355/3/4 357/3/4
f 358/3/4 359/3/4 360/3/4
f 360/3/4 359/3/4 361/3/4
f 361/4/4 362/4/4 363/4/4
f 361/4/4 363/4/4 365/4/4
f 363/4/4 364/4/4 365/4/4
f 365/4/4 364/4/4 366/4/4
f 361/4/4 365/4/4 368/4/4
f 368/4/4 365/4/4 369/4/4
f 367/3/4 368/3/4 370/3/4
f 370/3/4 368/3/4 371/3/4
f 372/3/4 373/3/4 374/3/4
f 374/3/4 373/3/4 375/3/4
f 376/3/4 377/3/4 378/3/4
f 378/3/4 377/3/4 379/3/4
f 380/3/4 381/3/4 382/3/4
f 382/3/4 381/3/4 383/3/4
f 386/2/5 385/2/5 384/2/5
f 387/2/5 385/2/5 386/2/5
f 390/2/5 389/2/5 388/2/5
f 391/2/5 389/2/5 390/2/5
f 396/1/5 393/1/5 392/1/5
f 397/1/5 393/1/5 396/1/5
f 398/2/5 395/2/5 394/2/5
f 399/2/5 395/2/5 398/2/5
f 402/1/5 401/1/5 400/1/5
f 403/1/5 401/1/5 402/1/5
f 406/1/5 405/1/5 404/1/5
f 407/1/5 405/1/5 406/1/5
f 409/2/5 408/2/5 407/2/5
f 410/2/5 408/2/5 409/2/5
f 411/2/5 408/2/5 410/2/5
f 414/1/5 413/1/5 412/1/5
f 415/1/5 413/1/5 414/1/5
f 419/1/5 417/1/5 416/1/5
f 420/1/5 417/1/5 419/1/5
f 421/2/5 419/2/5 418/2/5
f 422/2/5 419/2/5 421/2/5
f 425/1/5 424/1/5 423/1/5
f 426/1/5 424/1/5 425/1/5
f 429/2/5 428/2/5 427/2/5
f 430/2/5 428/2/5 429/2/5
f 434/3/5 432/3/5 431/3/5
f 435/3/5 432/3/5 434/3/5
f 438/3/5 434/3/5 433/3/5
f 438/3/5 436/3/5 435/3/5
f 438/3/5 435/3/5 434/3/5
f 439/3/5 436/3/5 438/3/5
f 442/3/5 438/3/5 437/3/5
f 443/2/5 439/2/5 438/2/5
f 444/3/5 440/3/5 439/3/5
f 444/2/5 439/2/5 443/2/5
f 445/3/5 440/3/5 444/3/5
f 447/3/5 442/3/5 441/3/5
f 448/3/5 438/3/5 442/3/5
f 448/3/5 442/3/5 447/3/5
f 449/2/5 443/2/5 438/2/5
f 450/3/5 446/3/5 445/3/5
f 450/3/5 445/3/5 444/3/5
f 451/3/5 446/3/5 450/3/5
f 452/3/5 446/3/5 451/3/5
f 453/3/5 438/3/5 448/3/5
f 454/2/5 449/2/5 438/2/5
f 454/3/5 438/3/5 453/3/5
f 454/2/5 450/2/5 449/2/5
f 455/3/5 451/3/5 450/3/5
f 455/2/5 450/2/5 454/2/5
f 456/3/5 451/3/5 455/3/5
f 457/3/5 455/3/5 454/3/5
f 458/3/5 455/3/5 457/3/5
f 459/3/5 455/3/5 458/3/5
f 460/3/5 455/3/5 459/3/5
f 461/3/5 459/3/5 458/3/5
f 462/3/5 459/3/5 461/3/5
f 465/4/5 464/4/5 463/4/5
f 466/4/5 464/4/5 465/4/5
f 467/2/6 468/2/6 469/2/6
f 469/2/6 468/2/6 470/2/6
f 471/2/6 472/2/6 473/2/6
f 473/2/6 472/2/6 474/2/6
f 475/1/6 476/1/6 477/1/6
f 477/1/6 476/1/6 478/1/6
f 479/1/6 480/1/6 484/1/6
f 484/1/6 480/1/6 485/1/6
f 482/2/6 483/2/6 486/2/6
f 481/2/6 482/2/6 486/2/6
f 486/2/6 483/2/6 487/2/6
f 487/2/6 483/2/6 488/2/6
f 489/1/6 490/1/6 491/1/6
f 491/1/6 490/1/6 492/1/6
f 493/1/6 494/1/6 495/1/6
f 495/1/6 494/1/6 496/1/6
f 497/2/6 498/2/6 499/2/6
f 499/2/6 498/2/6 500/2/6
f 501/1/6 502/1/6 503/1/6
f 503/1/6 502/1/6 504/1/6
f 505/1/6 506/1/6 507/1/6
f 507/1/6 506/1/6 508/1/6
f 509/3/6 510/3/6 512/3/6
f 512/3/6 510/3/6 513/3/6
f 511/3/6 512/3/6 516/3/6
f 513/3/6 514/3/6 516/3/6
f 512/3/6 513/3/6 516/3/6
f 516/3/6 514/3/6 517/3/6
f 515/3/6 516/3/6 520/3/6
f 517/3/6 518/3/6 523/3/6
f 519/3/6 520/3/6 525/3/6
f 520/3/6 516/3/6 526/3/6
f 525/3/6 520/3/6 526/3/6
f 521/2/6 522/2/6 527/2/6
f 527/2/6 522/2/6 528/2/6
f 523/3/6 524/3/6 529/3/6
f 517/3/6 523/3/6 529/3/6
f 529/3/6 524/3/6 530/3/6
f 526/3/6 516/3/6 531/3/6
f 531/3/6 516/3/6 532/3/6
f 517/3/6 529/3/6 533/3/6
f 533/3/6 529/3/6 534/3/6
f 532/3/6 533/3/6 535/3/6
f 535/3/6 533/3/6 536/3/6
f 536/3/6 533/3/6 537/3/6
f 537/3/6 533/3/6 538/3/6
f 536/3/6 537/3/6 539/3/6
f 539/3/6 537/3/6 540/3/6
f 541/4/6 542/4/6 545/4/6
f 545/4/6 542/4/6 546/4/6
f 543/4/6 544/4/6 547/4/6
f 547/4/6 544/4/6 548/4/6
f 549/4/6 550/4/6 551/4/6
f 551/4/6 550/4/6 552/4/6
f 553/4/6 554/4/6 555/4/6
f 555/4/6 554/4/6 556/4/6
f 556/4/6 557/4/6 560/4/6
f 560/4/6 557/4/6 561/4/6
f 558/4/6 559/4/6 562/4/6
f 562/4/6 559/4/6 563/4/6
f 564/4/6 565/4/6 566/4/6
f 566/4/6 565/4/6 567/4/6
f 567/4/6 568/4/6 569/4/6
f 569/4/6 568/4/6 570/4/6
f 571/4/6 572/4/6 573/4/6
f 573/4/6 572/4/6 574/4/6
